<svg width="100%" viewBox="0 0 100 100" xmlns="http://www.w3.org/2000/svg" role="img">
<title>SERGAINT</title>
<rect x="0" y="0" width="100" height="100" rx="22" fill="#A6192E"/>
<g transform="translate(20.59,75.31) scale(0.07200,-0.07200)"><path d="M64 64Q38 85 38 122Q38 151 45 177Q58 226 92 226Q103 225 162.5 203.0Q222 181 256 181Q307 181 307 221Q307 245 282.0 265.5Q257 286 221.5 305.0Q186 324 150.0 348.5Q114 373 89.0 416.5Q64 460 64 518Q64 614 158.0 668.5Q252 723 401.0 723.0Q550 723 637.5 692.5Q725 662 725 608Q725 569 707.0 539.5Q689 510 669 510Q662 510 622.5 525.5Q583 541 551 541Q488 541 488 492Q488 468 518.0 448.0Q548 428 590.5 409.5Q633 391 676.0 368.0Q719 345 749.0 305.0Q779 265 779.0 208.0Q779 151 742.5 104.0Q706 57 646 31Q527 -20 370 -20Q284 -20 209.5 -1.0Q135 18 104.5 37.0Q74 56 64 64Z" fill="#F5F1EA"/></g>
</svg>
