<?xml version="1.0" encoding="utf-8"?>
<!-- Generator: Adobe Illustrator 25.0.1, SVG Export Plug-In . SVG Version: 6.00 Build 0)  -->
<svg version="1.0" id="Layer_1" xmlns="http://www.w3.org/2000/svg" xmlns:xlink="http://www.w3.org/1999/xlink" x="0px" y="0px"
	 viewBox="0 0 952 696.9" style="enable-background:new 0 0 952 696.9;" xml:space="preserve">
<style type="text/css">
	.st0{fill:#444444;}
	.st1{fill:#F04518;}
</style>
<path class="st0" d="M203.4,344.9c0.9-45.6,39.2-86.8,84.6-91.2c32.4-4.1,65.5,10.5,85.8,35.7c-10,6.1-20.1,11.9-30.3,17.6
	c-18.1-19.1-48.5-25.4-72.1-13c-28.6,13.5-41.9,51-28.2,79.5c12,28.1,47,43.2,75.6,32.2c9.5-3.1,17.4-9.4,24.7-15.9
	c10.1,5.7,20.2,11.5,30.2,17.5c-21.4,27.2-57.7,41.6-91.8,35.2C236.7,434.9,200.8,391,203.4,344.9 M428.3,253.1
	c24,0.3,48-0.7,72,0.5c19.6,0.6,38.3,13.1,45.3,31.6c6.8,16.2,2.5,35.1-8.6,48.3c24.1,13.5,34.7,45.9,22.4,70.8
	c-8.4,19.1-28.6,31.4-49.3,32.3c-27.3,1.2-54.6,0.2-81.9,0.5L428.3,253.1 M462.3,282.9c0,14,0,27.9,0,41.8
	c13.8-0.7,28.3,2.2,41.5-2.8c14.1-6.6,14.5-28.8,0.6-36C491.1,280.5,476.2,283.6,462.3,282.9 M462.3,354.6c-0.1,17.5-0.1,35,0,52.5
	c17.5-0.8,35.5,2.2,52.6-2.5c20-6.6,21.5-37.8,2.5-46.6C499.8,351.7,480.5,355.7,462.3,354.6 M639.2,259c20.7-10,47.4-7.3,64.9,8
	c22,18.7,26.9,54.3,10.8,78.3c-10.5,15.9-27.3,25.5-42.7,35.8c-11.5,7.7-24.3,15.6-28.8,29.6c28.3,0.3,56.5,0.1,84.8,0.1
	c0,11,0.1,22.1,0,33.1c-40.5-0.1-81,0.2-121.4-0.2c-2.9-20-0.8-41.8,11.9-58.2c17.2-24.3,47.6-34,66.5-56.3
	c11.9-14.5,3.7-39.6-15.1-43c-17.3-3.5-30.9,10.7-39.1,24.1c-8.5-5.8-16.9-11.5-25.4-17.4C613.1,278.7,624.3,265.7,639.2,259
	L639.2,259z"/>
<path class="st1" d="M101,143.9h750V553H101V143.9 M118.9,161.6c0,124.6,0,249.2,0,373.8c238.1,0,476.2,0,714.3,0V161.6
	C595,161.6,356.9,161.6,118.9,161.6"/>
</svg>
