<svg width="376" height="33" viewBox="0 0 376 33" fill="none" xmlns="http://www.w3.org/2000/svg">
<path d="M0 0.524333H27.9789L29.7878 6.644L29.479 6.85911C28.9487 6.46922 28.2727 6.12822 27.4485 5.83367C26.5655 5.52571 25.6582 5.28944 24.7358 5.12722C23.7019 4.94323 22.653 4.85281 21.6023 4.85711H6.88454V14.4418H24.8018L25.0221 14.8378L21.8886 19.8037H21.4915C21.1964 19.558 20.7993 19.349 20.3 19.1779C19.1413 18.7941 17.9263 18.5992 16.7034 18.601H6.88454V23.0853C6.88454 23.5229 6.89077 24.1694 6.90695 25.025C6.92065 25.8818 6.97916 26.7667 7.08373 27.6809C7.18582 28.5963 7.34019 29.4604 7.54561 30.2732C7.75227 31.086 8.05976 31.6678 8.47309 32.0149V32.4097H0V32.0149C0.412076 31.6653 0.73576 31.0677 0.971054 30.2194C1.20635 29.3737 1.37442 28.4692 1.47775 27.5061C1.58108 26.5442 1.63959 25.6251 1.65453 24.7488C1.66947 23.8749 1.67694 23.2173 1.67694 22.7798V6.93733C1.67694 6.49856 1.66947 6.01089 1.65453 5.46944C1.6385 4.91866 1.5794 4.3699 1.47775 3.828C1.37442 3.27433 1.20635 2.74267 0.971054 2.23178C0.73576 1.72089 0.412076 1.29067 0 0.939889V0.524333ZM52.9474 4.28878C51.0937 4.28878 49.3433 4.55889 47.6963 5.09911C46.048 5.63933 44.5989 6.42644 43.3489 7.46167C42.0866 8.51308 41.0704 9.81966 40.3698 11.2921C39.634 12.8089 39.2668 14.5457 39.2668 16.5C39.2668 18.4556 39.634 20.1911 40.3698 21.7079C41.0701 23.1805 42.0863 24.4872 43.3489 25.5383C44.5989 26.5736 46.048 27.3607 47.6963 27.9009C49.3433 28.4411 51.0937 28.71 52.9474 28.71C54.8012 28.71 56.5578 28.4411 58.221 27.9009C59.883 27.3607 61.3321 26.5736 62.5671 25.5383C63.8034 24.5019 64.7881 23.2259 65.5239 21.7079C66.2596 20.1911 66.6281 18.4556 66.6281 16.5C66.6281 14.5457 66.2596 12.8089 65.5239 11.2921C64.7881 9.77533 63.8034 8.49811 62.5671 7.46167C61.3321 6.42644 59.883 5.63933 58.221 5.09911C56.5189 4.55276 54.7382 4.27915 52.9474 4.28878ZM52.9474 0C55.4772 0 57.8961 0.378889 60.2067 1.13789C62.5161 1.89689 64.5453 2.98344 66.297 4.39756C68.0502 5.81801 69.4785 7.58551 70.4887 9.58467C71.5332 11.627 72.0561 13.9333 72.0561 16.5C72.0561 19.0667 71.5332 21.373 70.4887 23.4153C69.4794 25.4147 68.0509 27.182 66.297 28.6012C64.5453 30.0166 62.5161 31.1031 60.2067 31.8621C57.8961 32.6199 55.4772 33 52.9474 33C50.4165 33 48.005 32.6199 45.7093 31.8621C43.4149 31.1031 41.3919 30.0166 39.6415 28.6012C37.8871 27.1824 36.4586 25.415 35.4498 23.4153C34.404 21.373 33.8824 19.0667 33.8824 16.5C33.8824 13.9333 34.404 11.627 35.4498 9.58467C36.4595 7.58525 37.8879 5.81767 39.6415 4.39756C41.3919 2.98344 43.4149 1.89689 45.7093 1.13789C48.005 0.377667 50.4165 0 52.9474 0ZM85.0645 18.7318C85.0645 20.1312 85.2263 21.439 85.55 22.649C85.8494 23.8136 86.4239 24.8926 87.227 25.7987C88.0212 26.6897 89.0944 27.3827 90.4489 27.8777C91.8009 28.3751 93.4928 28.6232 95.5233 28.6232C97.5824 28.6232 99.2892 28.3751 100.642 27.8777C101.996 27.3827 103.076 26.6897 103.886 25.7987C104.702 24.8953 105.292 23.8165 105.607 22.649C105.945 21.439 106.115 20.1312 106.115 18.7318V6.95811C106.115 6.51933 106.107 6.03167 106.093 5.49144C106.076 4.93999 106.009 4.3911 105.894 3.85122C105.778 3.30344 105.608 2.76802 105.387 2.25256C105.171 1.74771 104.829 1.30402 104.393 0.961889V0.568333H113.043V0.961889C112.627 1.31662 112.295 1.75735 112.072 2.25256C111.836 2.76344 111.668 3.29633 111.564 3.85122C111.461 4.40489 111.403 4.95244 111.388 5.49144C111.374 6.03167 111.366 6.51933 111.366 6.95811V19.5629C111.366 21.6627 111.005 23.5388 110.285 25.1863C109.592 26.7976 108.527 28.2287 107.173 29.3663C105.82 30.5042 104.173 31.3732 102.231 31.9697C100.289 32.5686 98.0829 32.8692 95.6116 32.8692C93.1404 32.8692 90.9269 32.5686 88.9699 31.9697C87.0128 31.3732 85.3583 30.5042 84.0051 29.3663C82.6519 28.2287 81.5868 26.7976 80.8939 25.1863C80.1731 23.5388 79.8133 21.6627 79.8133 19.5629V6.95811C79.8133 6.51933 79.8059 6.03167 79.7909 5.49144C79.775 4.94106 79.7159 4.39269 79.6141 3.85122C79.5125 3.29983 79.3419 2.76287 79.1062 2.25256C78.8829 1.75759 78.5514 1.31694 78.1351 0.961889V0.568333H86.785V0.961889C86.3443 1.31144 86.0131 1.74167 85.7928 2.25256C85.3575 3.28064 85.1182 4.37849 85.0869 5.49144C85.072 6.03167 85.0645 6.51933 85.0645 6.95811V18.7318ZM202.28 14.399C202.28 14.399 202.272 6.03289 202.258 5.49267C202.241 4.94093 202.175 4.39173 202.061 3.85122C201.942 3.30165 201.765 2.76611 201.53 2.25378C201.3 1.75069 200.952 1.30834 200.514 0.963111V0.569556H209.209V0.961889C208.796 1.31144 208.472 1.74167 208.237 2.25256C208.001 2.76344 207.833 3.29633 207.73 3.85C207.627 4.40367 207.567 4.95122 207.553 5.49144C207.537 6.03167 207.537 23.8957 207.553 24.7708C207.567 25.6459 207.627 26.565 207.73 27.5269C207.833 28.49 208.001 29.3944 208.237 30.2414C208.472 31.0884 208.796 31.6861 209.209 32.0369V32.4292H200.514V32.0369C200.955 31.6861 201.295 31.0884 201.53 30.2414C201.764 29.3944 201.94 28.49 202.061 27.5269C202.173 26.612 202.239 25.6921 202.258 24.7708C202.272 23.8957 202.28 18.7318 202.28 18.7318H181.185C181.185 18.7318 181.193 23.8957 181.209 24.7708C181.223 25.6459 181.289 26.565 181.408 27.5269C181.524 28.49 181.695 29.3944 181.914 30.2414C182.136 31.0884 182.465 31.6861 182.908 32.0369V32.4292H174.215V32.0369C174.656 31.6861 174.993 31.0884 175.228 30.2414C175.462 29.3944 175.639 28.49 175.759 27.5269C175.877 26.565 175.94 25.6459 175.958 24.7708C175.972 23.8957 175.972 6.03167 175.958 5.49144C175.94 4.93963 175.874 4.39037 175.759 3.85C175.641 3.30028 175.463 2.76468 175.228 2.25256C174.999 1.74984 174.652 1.30756 174.215 0.961889V0.569556H182.908V0.961889C182.466 1.31144 182.136 1.74167 181.914 2.25256C181.692 2.7675 181.523 3.30255 181.408 3.85C181.291 4.38998 181.224 4.93945 181.209 5.49144C181.193 6.03167 181.185 14.3978 181.185 14.3978L202.28 14.399ZM291.073 24.772C291.101 25.6471 291.169 26.5662 291.272 27.5281C291.374 28.4912 291.542 29.3957 291.779 30.2414C292.015 31.0884 292.338 31.6861 292.75 32.0369V32.4304H284.01V32.0369C284.01 31.0151 283.695 30.0447 283.062 29.1268C282.365 28.1234 281.621 27.1519 280.833 26.2154L264.287 6.95811H264.111C264.111 6.95811 264.117 23.8957 264.132 24.772C264.147 25.6471 264.206 26.5662 264.31 27.5281C264.411 28.4912 264.575 29.3957 264.796 30.2414C265.016 31.0884 265.332 31.6861 265.744 32.0369V32.4304H257.536V32.0369C257.919 31.6861 258.214 31.0884 258.419 30.2414C258.625 29.3957 258.771 28.4912 258.86 27.5281C258.947 26.5662 258.998 25.6471 259.014 24.772C259.029 23.8957 259.029 6.03167 259.014 5.49267C258.998 4.95244 258.947 4.40489 258.86 3.85122C258.773 3.30402 258.626 2.76787 258.419 2.25256C258.227 1.76274 257.926 1.32161 257.536 0.961889V0.568333H267.024V0.961889C267.024 2.04233 267.334 3.01889 267.95 3.894C268.711 4.95102 269.521 5.97345 270.377 6.95811L285.778 24.7268H285.957C285.957 24.7268 285.949 6.03167 285.932 5.49267C285.917 4.9419 285.858 4.39312 285.757 3.85122C285.655 3.30225 285.491 2.76608 285.269 2.25256C285.064 1.76437 284.756 1.32444 284.365 0.961889V0.568333H292.661V0.961889C292.248 1.31452 291.923 1.75623 291.711 2.25256C291.491 2.76344 291.329 3.29756 291.226 3.85122C291.123 4.40489 291.064 4.95244 291.049 5.49267C291.037 6.03167 291.045 23.8957 291.073 24.772ZM309.325 28.2284H321.595C322.996 28.2303 324.386 27.9857 325.698 27.5061C327.021 27.0258 328.206 26.3034 329.25 25.3403C330.295 24.3772 331.126 23.1599 331.745 21.6859C332.363 20.2131 332.671 18.4837 332.671 16.5C332.671 14.5163 332.348 12.7869 331.7 11.3129C331.053 9.84011 330.191 8.62156 329.12 7.65845C328.064 6.70688 326.827 5.97069 325.479 5.49267C324.15 5.01547 322.746 4.77099 321.331 4.77033H309.325V28.2284ZM304.097 5.49144C304.081 4.94062 304.022 4.39184 303.919 3.85C303.817 3.29633 303.647 2.76344 303.413 2.25256C303.179 1.74167 302.854 1.31144 302.443 0.961889V0.569556H322.214C324.419 0.569556 326.48 0.933778 328.392 1.66222C330.258 2.36274 331.949 3.44472 333.356 4.83633C334.753 6.22233 335.85 7.89189 336.644 9.84744C337.438 11.803 337.837 14.0054 337.837 16.456C337.837 18.9078 337.446 21.1176 336.666 23.0866C335.887 25.0568 334.813 26.7349 333.444 28.1197C332.074 29.5083 330.419 30.597 328.59 31.3146C326.722 32.0589 324.684 32.4304 322.48 32.4304H302.444V32.0381C302.855 31.6873 303.18 31.0897 303.414 30.2414C303.648 29.3957 303.819 28.4912 303.921 27.5281C304.025 26.5662 304.082 25.6471 304.099 24.772C304.112 23.8969 304.112 6.03289 304.097 5.49144ZM250.942 30.2414C250.397 29.3511 249.876 28.4463 249.381 27.5281C248.862 26.5662 248.385 25.6459 247.954 24.772C247.522 23.8957 247.202 23.2393 246.996 22.8018L238.658 5.20789C238.257 4.39059 237.929 3.54084 237.677 2.66811C237.469 1.91033 237.484 1.34078 237.722 0.961889V0.568333H228.228V0.961889C228.554 1.31144 228.738 1.74167 228.783 2.25256C228.828 2.76344 228.783 3.289 228.651 3.828C228.517 4.36944 228.339 4.91578 228.116 5.46944C227.892 6.02433 218.567 26.5662 218.062 27.5281C217.575 28.4592 217.039 29.3649 216.457 30.2414C215.893 31.0884 215.373 31.6861 214.897 32.0369V32.4292H223.278V32.0369C223.009 31.6861 222.891 31.2706 222.922 30.789C222.949 30.3087 223.04 29.8051 223.188 29.2783C223.339 28.754 223.53 28.2223 223.77 27.6821C224.004 27.1419 226.8 20.2632 226.8 20.2632L233.177 5.46944H233.356L240.041 20.2632C240.041 20.2632 234.194 20.2461 233.508 20.1936C232.821 20.1386 232.28 19.9894 231.882 19.7401H231.395L229.663 24.7366L230.043 25.003C230.547 24.7891 231.16 24.6302 231.882 24.5251C232.604 24.4176 233.381 24.3638 234.21 24.3638L241.958 24.376C241.958 24.376 243.904 28.7088 244.055 29.2356C244.203 29.7599 244.277 30.2696 244.277 30.7682C244.277 31.2644 244.145 31.6861 243.877 32.0369V32.4292H252.349V32.0369C251.93 31.6861 251.461 31.0884 250.942 30.2414ZM132.314 14.5017H132.626C133.042 14.7351 133.511 14.8744 134.032 14.9184C134.552 14.9624 135.081 14.9844 135.617 14.9844H141.331C143.354 14.9844 144.857 14.4956 145.839 13.5166C146.82 12.5376 147.313 11.3324 147.313 9.9C147.313 8.26467 146.769 6.99478 145.682 6.08911C144.596 5.18344 143.206 4.73 141.509 4.73H127.226V22.7847C127.226 23.3114 127.232 24.0264 127.248 24.9321C127.262 25.8366 127.322 26.7569 127.426 27.6931C127.53 28.6281 127.686 29.4971 127.894 30.3001C128.102 31.1043 128.416 31.68 128.832 32.032V32.4256H120.172V32.032C120.589 31.68 120.916 31.0823 121.154 30.2353C121.392 29.3883 121.564 28.4814 121.668 27.5171C121.772 26.5528 121.831 25.6337 121.846 24.7561C121.861 23.881 121.869 23.2222 121.869 22.7847V6.92145C121.869 6.48389 121.861 5.99378 121.846 5.45356C121.83 4.90192 121.771 4.35233 121.668 3.80967C121.564 3.256 121.392 2.72067 121.154 2.20978C120.916 1.69889 120.589 1.26867 120.172 0.917889V0.523111H141.152C142.849 0.523111 144.402 0.749222 145.816 1.20267C147.231 1.65489 148.435 2.29167 149.431 3.10811C150.426 3.92324 151.22 4.94964 151.752 6.10989C152.303 7.293 152.578 8.60078 152.578 10.032C152.578 12.5156 151.79 14.5017 150.214 15.9928C148.635 17.4814 146.494 18.4018 143.785 18.7526L143.741 18.8846L146.642 23.0474C147.268 23.9531 147.929 24.8441 148.629 25.7204C149.327 26.598 150.042 27.4303 150.771 28.2187C151.501 29.007 152.229 29.7232 152.959 30.3649C153.617 30.9583 154.343 31.4735 155.124 31.9V32.2496C154.053 32.7458 152.892 32.9951 151.642 32.9951C150.724 33.0052 149.811 32.8639 148.941 32.5771C148.124 32.3015 147.356 31.9027 146.664 31.3952C145.939 30.8596 145.28 30.2422 144.701 29.5558C144.055 28.7921 143.452 27.9949 142.893 27.1676L137.448 19.1913H129.591L129.412 18.8846L132.314 14.5017ZM375.48 19.7316C375.107 18.8212 374.535 18.0028 373.803 17.3348C373.047 16.6572 372.179 16.1108 371.236 15.719C370.214 15.2895 369.155 14.9489 368.073 14.7009C366.95 14.4406 365.773 14.234 364.542 14.0873C363.311 13.9407 362.107 13.8441 360.932 13.8013C359.563 13.7545 358.196 13.6534 356.836 13.4982C355.546 13.3479 354.422 13.1169 353.462 12.8003C352.502 12.4862 351.753 12.0536 351.215 11.5036C350.676 10.9536 350.423 10.2227 350.457 9.30967C350.515 7.80878 351.4 6.58044 353.115 5.62589C354.829 4.67133 357.434 4.25822 360.933 4.38533C363.46 4.477 365.736 4.851 367.758 5.50733C368.663 5.7987 369.536 6.18168 370.361 6.65011C371.883 7.53133 371.923 8.63256 372.06 9.27056L372.453 9.449L375.65 4.00033L373.982 3.17289C373.187 2.77933 372.18 2.37111 370.96 1.94578C369.571 1.47635 368.155 1.08902 366.719 0.785889C365.113 0.435111 363.339 0.223667 361.4 0.154C359.196 0.0733334 357.128 0.218778 355.201 0.589111C353.274 0.959445 351.575 1.54978 350.102 2.36133C348.625 3.17411 347.455 4.202 346.584 5.44622C345.713 6.69045 345.245 8.162 345.182 9.86089C345.108 11.7663 345.561 13.2794 346.534 14.399C347.509 15.5198 348.786 16.3814 350.367 16.9816C351.948 17.5817 353.721 18.0046 355.684 18.2527C357.613 18.4973 359.552 18.6555 361.495 18.7269C362.669 18.7709 363.809 18.8772 364.904 19.0508C366.002 19.2243 366.978 19.4883 367.833 19.8452C368.69 20.2033 369.364 20.6702 369.857 21.2496C370.35 21.8313 370.579 22.5793 370.545 23.4948C370.518 24.2437 370.285 24.9714 369.87 25.6007C369.422 26.2949 368.602 26.8962 367.821 27.2641C366.958 27.6711 366.124 28.0243 364.864 28.2578C363.603 28.4937 362.12 28.5792 360.417 28.5181C357.447 28.4106 354.758 27.9706 352.35 27.0637C351.358 26.6969 350.401 26.2437 349.492 25.7094C347.785 24.651 347.521 23.529 347.416 22.8837L347.003 22.6514L346.481 23.6023L344.007 28.1661C344.696 28.6 345.466 29.073 346.315 29.5851C347.164 30.0972 348.183 30.5788 349.373 31.0322C350.562 31.4844 351.947 31.8768 353.524 32.2104C355.101 32.5453 356.964 32.7531 359.108 32.8313C364.43 33.0244 368.543 32.2764 371.448 30.5886C374.352 28.9007 375.866 26.3988 375.992 23.0804C376.041 21.7886 375.87 20.6727 375.48 19.7316Z" fill="#212121"/>
</svg>
