<svg id="Layer_1" style="enable-background:new 0 0 3211.45 245.76;" version="1.1" viewBox="0 0 3211.45 245.76" x="0px" xml:space="preserve" xmlns="http://www.w3.org/2000/svg" xmlns:xlink="http://www.w3.org/1999/xlink" y="0px">
<g>
<path d="M9.23,228.07v-7.31h22.01V23.09H9.23v-7.3H83.3c56.33,0,67.48,31.14,67.48,50.84c0,31.46-25.45,46.09-48.6,49.27v0.63
		c38.31,4.76,54.9,33.37,54.9,53.06c0,24.16-12.29,58.48-74.07,58.48H9.23z M58.99,113.03h24.59c28.6,0,36.31-12.71,36.31-46.4
		c0-29.55-10.01-43.53-38.6-43.53h-22.3V113.03z M58.99,220.76h24.02c33.18,0,41.18-12.4,41.18-52.44
		c0-40.36-17.44-47.98-51.75-47.98H58.99V220.76z"></path>
<path d="M373.03,228.07v-7.31h25.17V23.09h-25.17v-7.3h144.99v51.8h-6.29c-4.86-37.81-22.59-44.5-48.62-44.5h-37.17v91.53
		c28.88,0,38.03-0.32,42.03-34h6.29v80.4h-6.29c-1.71-33.99-13.72-38.13-42.03-38.45v98.2h34.6c37.74,0,50.32-5.1,57.76-52.13h7.43
		l-3.72,59.43H373.03z"></path>
<path d="M743.7,228.07v-7.31h22.02V23.09H743.7v-7.3h84.36c54.9,0,63.2,32.1,63.2,46.39c0,41.64-32.89,49.58-59.78,52.12v0.64
		c32.9,9.21,55.21,22.55,52.63,72.76c-0.87,15.26,0.86,29.56,7.15,32.73c5.43,4.14,16,2.23,25.45-1.59v7.95
		c-9.73,3.82-18.02,5.73-25.45,6.03c-20.31,0.32-31.74-11.75-35.46-26.7c-1.44-5.71-3.15-31.45-5.15-50.51
		c-1.43-14.62-4.01-38.45-40.03-38.45h-17.17v103.6h22.59v7.31H743.7z M793.46,109.86h15.44c31.47,0,51.19-2.86,51.19-46.4
		c0-30.82-12.01-40.36-39.46-40.36h-27.17V109.86z"></path>
<polygon points="1152.69,23.09 1130.39,23.09 1130.39,15.78 1186.14,15.78 1267.37,169.6 1267.94,169.6 1267.94,23.09 
		1245.63,23.09 1245.63,15.78 1298.53,15.78 1298.53,23.09 1276.52,23.09 1276.52,232.83 1269.09,232.83 1161.85,29.45 
		1161.28,29.45 1161.28,220.76 1183.29,220.76 1183.29,228.07 1130.39,228.07 1130.39,220.76 1152.69,220.76 	"></polygon>
<polygon points="1649.48,113.98 1649.48,23.09 1627.18,23.09 1627.18,15.78 1699.52,15.78 1699.52,23.09 1677.22,23.09 
		1677.22,220.76 1699.52,220.76 1699.52,228.06 1627.18,228.06 1627.18,220.76 1649.48,220.76 1649.48,123.19 1567.12,123.19 
		1567.12,220.76 1589.42,220.76 1589.42,228.06 1517.08,228.06 1517.08,220.76 1539.38,220.76 1539.38,23.09 1517.08,23.09 
		1517.08,15.78 1589.42,15.78 1589.42,23.09 1567.12,23.09 1567.12,113.98 	"></polygon>
<path d="M1902.32,228.07v-7.31h22.61l62.05-207.83h11.15l58.92,207.83h20.02v7.31h-72.08v-7.31h23.19l-19.75-69.91h-54.62
		l-20.3,69.91h24.58v7.31H1902.32z M2005.58,141.94l-23.46-86.11h-0.58l-25.15,86.11H2005.58z"></path>
<path d="M2291.01,228.07v-7.31h22.02V23.09h-22.02v-7.3h84.35c54.92,0,63.21,32.1,63.21,46.39c0,41.64-32.89,49.58-59.77,52.12
		v0.64c32.89,9.21,55.2,22.55,52.62,72.76c-0.85,15.26,0.86,29.56,7.15,32.73c5.43,4.14,16.02,2.23,25.46-1.59v7.95
		c-9.73,3.82-18.02,5.73-25.46,6.03c-20.31,0.32-31.73-11.75-35.45-26.7c-1.44-5.71-3.15-31.45-5.16-50.51
		c-1.42-14.62-4.01-38.45-40.04-38.45h-17.17v103.6h22.61v7.31H2291.01z M2340.77,109.86h15.45c31.47,0,51.18-2.86,51.18-46.4
		c0-30.82-12-40.36-39.45-40.36h-27.17V109.86z"></path>
<path d="M2701.72,23.09h-22.02v-7.3h76.63c54.05,0,89.22,40.68,89.22,104.23c0,36.87-12.57,64.52-29.75,84.85
		c-18.29,20.98-45.16,23.21-60.05,23.21h-76.06v-7.31h22.02V23.09z M2729.46,220.76h28.01c33.18-0.32,43.76-19.4,49.77-33.37
		c5.72-14.62,6.86-42.59,6.86-73.09c0-45.12-3.99-91.21-63.2-91.21h-21.44V220.76z"></path>
<path d="M3088.41,228.07v-7.31h23.71V23.09h-19.44c-27.17,0-30.01,22.58-35.45,54.02h-7.42l3.13-61.33h147.27l2,61.33h-7.43
		c-3.13-30.18-12.57-54.02-42.32-54.02h-12.59v197.67h23.73v7.31H3088.41z"></path>
</g>
</svg>