<svg aria-labelledby="title" class="inlined-svg" id="Layer_1" role="img" style="enable-background:new 0 0 396.41 44.29;" viewBox="0 0 396.41 44.29" xmlns="http://www.w3.org/2000/svg"><title id="title">Home</title>
<polygon points="0,0.06 4.76,0.06 4.76,19.11 24.62,19.11 24.62,0.06 29.38,0.06 29.38,43.79 24.62,43.79 24.62,23.87 4.76,23.87 
	4.76,43.79 0,43.79 "></polygon>
<polygon points="222.25,0.06 227.01,0.06 227.01,19.11 246.87,19.11 246.87,0.06 251.63,0.06 251.63,43.79 246.87,43.79 
	246.87,23.87 227.01,23.87 227.01,43.79 222.25,43.79 "></polygon>
<path d="M63.34,39.21c-11.86,0-11.42-5.27-11.42-15.68v-3.58c0-9.97-0.19-15.06,11.42-15.06c11.48,0,11.29,5.08,11.35,15.06v3.58
	C74.64,33.94,75.14,39.21,63.34,39.21z M79.34,23.65v-4.14C79.34,8.03,79.4,0,63.34,0C47.1,0,47.22,8.09,47.22,19.7v3.95
	c0,11.98-0.44,20.64,16.12,20.64C79.84,44.29,79.34,35.63,79.34,23.65z"></path>
<polygon points="97.5,0.06 102.26,0.06 102.26,39.03 123,39.03 123,43.79 97.5,43.79 "></polygon>
<polygon points="133.6,0.06 138.36,0.06 138.36,39.03 159.1,39.03 159.1,43.79 133.6,43.79 "></polygon>
<polygon points="179.58,24.33 165.11,0.06 170.41,0.06 182.08,19.65 193.62,0.06 198.86,0.06 184.33,24.33 184.33,43.79 
	179.58,43.79 "></polygon>
<path d="M270.98,37.39c-1.25-3.2-1-10.54-1-13.8V0.06h4.77v23.21c0,7.15-0.06,10.73,1.07,12.73c1.32,2.2,4.2,3.51,9.22,3.51
	c4.83,0,7.65-1.32,8.97-3.51c1.19-2.07,1.13-5.96,1.13-12.73V0.06h4.83v23.52c0,5.77,0.31,11.92-2.07,15.37
	c-2.26,3.45-6.27,5.33-12.86,5.33C277.7,44.29,272.87,41.9,270.98,37.39z"></path>
<polygon points="318.47,0.06 323.71,0.06 342.86,32.87 342.86,0.06 347.61,0.06 347.61,43.79 343.55,43.79 323.21,8.48 
	323.21,43.79 318.47,43.79 "></polygon>
<polygon points="373.82,4.8 360.97,4.8 360.97,0.06 391.41,0.06 391.41,4.8 378.56,4.8 378.56,43.79 373.82,43.79 "></polygon>
</svg>